{"title":"Wrath of the Titans 1080p BluRay Dual Audio By Ashish7(wall.e)","uid":7481849,"size":4500375298,"categoryP":"video","categoryS":"hd___movies","magnet":"?xt=urn:btih:54699d4da0133ed9dd359912e23f19aa68ea3331&amp;dn=Wrath+of+the+Titans+1080p+BluRay+Dual+Audio+By+Ashish7%28wall.e%29&amp;tr=udp%3A%2F%2Ftracker.openbittorrent.com%3A80&amp;tr=udp%3A%2F%2Fopen.demonii.com%3A1337&amp;tr=udp%3A%2F%2Ftracker.coppersurfer.tk%3A6969&amp;tr=udp%3A%2F%2Fexodus.desync.com%3A6969","seeders":0,"leechers":1,"uploader":"wall.e","files":13,"time":1343458371,"description":"Format                           : Matroska\nFile size                        : 4.14 GiB\nDuration                         : 1h 39mn\nOverall bit rate                 : 5958 Kbps\n\nVideo\nID                               : 1\nFormat                           : AVC\nFormat/Info                      : Advanced Video Codec\nBit rate                         : 5352 Kbps\nMaximum bit rate                 : 31.2 Mbps\nWidth                            : 1920 pixels\nHeight                           : 1080 pixels\nDisplay aspect ratio             : 16:9\nFrame rate                       : 23.976 fps\nColor space                      : YUV\nChroma subsampling               : 4:2:0\nStream size                      : 3.64 GiB (88%)\nTitle                            : 1080p BluRay By Ashish7(wall.e)\n\nAudio #1\nID                               : 2\nFormat                           : AC-3\nFormat/Info                      : Audio Coding 3\nBit rate                         : 384 Kbps\nChannel(s)                       : 6 channels\nChannel positions                : Front: L C R, Side: L R, LFE\nSampling rate                    : 48.0 KHz\nBit depth                        : 16 bits\nStream size                      : 273 MiB (6%)\nTitle                            : 5.1 English Audio By Ashish7(wall.e)\n\nAudio #2\nID                               : 3\nFormat                           : AC-3\nFormat/Info                      : Audio Coding 3\nBit rate                         : 224 Kbps\nChannel(s)                       : 2 channels\nChannel positions                : Front: L R\nSampling rate                    : 48.0 KHz\nBit depth                        : 16 bits\nStream size                      : 159 MiB (4%)\nTitle                            : Hindi Audio By Ashish7(wall.e)","torrent":{"xt":"urn:btih:54699d4da0133ed9dd359912e23f19aa68ea3331","amp;dn":"Wrath+of+the+Titans+1080p+BluRay+Dual+Audio+By+Ashish7%28wall.e%29","amp;tr":["udp%3A%2F%2Ftracker.openbittorrent.com%3A80","udp%3A%2F%2Fopen.demonii.com%3A1337","udp%3A%2F%2Ftracker.coppersurfer.tk%3A6969","udp%3A%2F%2Fexodus.desync.com%3A6969"],"infoHash":"54699d4da0133ed9dd359912e23f19aa68ea3331","infoHashBuffer":{"type":"Buffer","data":[84,105,157,77,160,19,62,217,221,53,153,18,226,63,25,170,104,234,51,49]},"announce":[],"urlList":[]}}